<?xml version="1.0" standalone="yes"?>
<!DOCTYPE svg PUBLIC "-//W3C//DTD SVG 1.1//EN"
 "http://www.w3.org/Graphics/SVG/1.1/DTD/svg11.dtd">
<svg xmlns="http://www.w3.org/2000/svg" version="1.1"
  width="100%" height="100%" viewBox="0 0 1024 768"
  style="fill: none; font-family: Helvetica;
 font: Helvetica;
">

<!-- Creator: NGspice -->

<rect x="0" y="0" width="1024" height="768" fill="black" stroke="none"/>
<text stroke="none" fill="white" font-size="16" x="358" y="752">
v(v-sweep)
</text>
<text stroke="none" fill="white" font-size="16" x="10" y="16">
dc1: ** sch_path: /home/zwierzak/projects/sky130_opamp_git/opamp_cascode_dc_response.sch
</text>
<path stroke="white" stroke-dasharray="1,2" d="M50 720l0 -666"/>
<text stroke="none" fill="white" font-size="16" x="25" y="728">
0.970
</text>
<path stroke="white" stroke-dasharray="1,2" d="M204 720l0 -666"/>
<text stroke="none" fill="white" font-size="16" x="179" y="728">
0.975
</text>
<path stroke="white" stroke-dasharray="1,2" d="M358 720l0 -666"/>
<text stroke="none" fill="white" font-size="16" x="333" y="728">
0.980
</text>
<path stroke="white" stroke-dasharray="1,2" d="M512 720l0 -666"/>
<text stroke="none" fill="white" font-size="16" x="487" y="728">
0.985
</text>
<path stroke="white" stroke-dasharray="1,2" d="M666 720l0 -666"/>
<text stroke="none" fill="white" font-size="16" x="641" y="728">
0.990
</text>
<path stroke="white" stroke-dasharray="1,2" d="M820 720l0 -666"/>
<text stroke="none" fill="white" font-size="16" x="795" y="728">
0.995
</text>
<path stroke="white" stroke-dasharray="1,2" d="M974 720l0 -666"/>
<text stroke="none" fill="white" font-size="16" x="949" y="728">
1.000
</text>
<text stroke="none" fill="white" font-size="16" x="614" y="752">
V
</text>
<path stroke="white" d="M50 720l924 0"/>
<text stroke="none" fill="white" font-size="16" x="18" y="728">
0.0
</text>
<path stroke="white" stroke-dasharray="1,2" d="M50 646l924 0"/>
<text stroke="none" fill="white" font-size="16" x="18" y="654">
0.2
</text>
<path stroke="white" stroke-dasharray="1,2" d="M50 572l924 0"/>
<text stroke="none" fill="white" font-size="16" x="18" y="580">
0.4
</text>
<path stroke="white" stroke-dasharray="1,2" d="M50 498l924 0"/>
<text stroke="none" fill="white" font-size="16" x="18" y="506">
0.6
</text>
<path stroke="white" stroke-dasharray="1,2" d="M50 424l924 0"/>
<text stroke="none" fill="white" font-size="16" x="18" y="432">
0.8
</text>
<path stroke="white" stroke-dasharray="1,2" d="M50 350l924 0"/>
<text stroke="none" fill="white" font-size="16" x="18" y="358">
1.0
</text>
<path stroke="white" stroke-dasharray="1,2" d="M50 276l924 0"/>
<text stroke="none" fill="white" font-size="16" x="18" y="284">
1.2
</text>
<path stroke="white" stroke-dasharray="1,2" d="M50 202l924 0"/>
<text stroke="none" fill="white" font-size="16" x="18" y="210">
1.4
</text>
<path stroke="white" stroke-dasharray="1,2" d="M50 128l924 0"/>
<text stroke="none" fill="white" font-size="16" x="18" y="136">
1.6
</text>
<path stroke="white" stroke-dasharray="1,2" d="M50 54l924 0"/>
<text stroke="none" fill="white" font-size="16" x="18" y="62">
1.8
</text>
<text stroke="none" fill="white" font-size="16" x="10" y="32">
V
</text>
<path stroke="red" d="M462 23l46 0"/>
<text stroke="none" fill="white" font-size="16" x="518" y="32">
v(out)
</text>
<path stroke="red" d="M50 680l3 0 0 -1 35 0 0 -1 31 0 0 -1 29 0 0 -1 26 0 0 -1 25 0 0 -1 22 0 0 -1 21 0 0 -1 18 0 0 -1 18 0 0 -1 15 0 0 -1 15 0 0 -1 13 0 0 -1 12 0 0 -1 11 0 0 -1 10 0 1 -1 9 0 0 -1 8 0 0 -1 8 0 0 -1 7 0 0 -1 7 0 0 -1 6 0 0 -1"/>
<path stroke="red" d="M400 658l6 0 0 -1 5 0 0 -1 5 0 0 -1 4 0 0 -1 4 0 0 -1 4 0 0 -1 3 0 0 -1 4 0 0 -1 2 0 1 -1 2 0 0 -1 3 0 0 -1 2 0 0 -1 3 0 0 -1 2 0 0 -1 2 0 0 -1 2 0 0 -1 1 0 0 -1 2 0 0 -1 2 0 0 -1 1 0 0 -1 1 0 0 -1 2 0 0 -1 1 0 0 -1 1 0"/>
<path stroke="red" d="M465 635l0 -1 1 0 0 -1 1 0 0 -1 1 0 0 -1 1 0 0 -1 1 0 0 -1 1 0 0 -1 1 0 0 -1 1 0 0 -2 1 0 0 -1 1 0 0 -1 1 0 0 -2 1 0 0 -1 1 -1 0 -1 1 0 0 -2 1 0 0 -2 1 0 0 -2 1 0 0 -3 1 0 0 -2 1 0 0 -3 1 0 0 -3 1 0 0 -3 1 0 0 -4 1 0 0 -4"/>
<path stroke="red" d="M488 590l1 0 0 -5 1 -1 0 -7 1 0 0 -15 1 -1 0 -30 1 -1 0 -36 1 -1 0 -34 1 -2 0 -33 1 -1 0 -30 1 -1 0 -29 1 -1 0 -26 1 -1 0 -25 1 -1 0 -21 1 -1 0 -20 1 -1 0 -17 1 -1 0 -16 1 0 0 -13 1 -1 0 -11 1 -1 0 -10 1 0 0 -8 1 -1 0 -7"/>
<path stroke="red" d="M508 180l1 0 0 -6 1 0 0 -5 1 -1 0 -4 1 0 0 -4 1 0 0 -3 1 0 0 -3 1 0 0 -3 1 0 0 -2 1 0 0 -2 1 0 0 -2 1 0 0 -1 1 0 0 -2 1 0 0 -1 1 0 0 -1 1 0 0 -2 1 0 0 -1 1 0 0 -1 1 0 0 -1 2 0 0 -1 1 0 0 -1 1 0 0 -1 2 0 0 -1 1 0 0 -1 2 0"/>
<path stroke="red" d="M535 130l0 -1 2 0 0 -1 2 0 0 -1 2 0 0 -1 3 0 0 -1 2 0 1 -1 2 0 1 -1 3 0 0 -1 3 0 0 -1 4 0 0 -1 5 0 0 -1 4 0 0 -1 6 0 0 -1 5 0 0 -1 7 0 0 -1 7 0 0 -1 7 0 0 -1 9 0 0 -1 9 0 0 -1 10 0 0 -1 11 0 0 -1 11 0 0 -1 13 0 0 -1 14 0"/>
<path stroke="red" d="M678 107l0 -1 15 0 0 -1 16 0 0 -1 17 0 0 -1 18 0 0 -1 20 0 0 -1 21 0 0 -1 22 0 0 -1 24 0 0 -1 25 0 0 -1 27 0 0 -1 28 0 0 -1 30 0 0 -1 32 0 0 -1 1 0"/>
</svg>
