<?xml version="1.0" standalone="yes"?>
<!DOCTYPE svg PUBLIC "-//W3C//DTD SVG 1.1//EN"
 "http://www.w3.org/Graphics/SVG/1.1/DTD/svg11.dtd">
<svg xmlns="http://www.w3.org/2000/svg" version="1.1"
  width="100%" height="100%" viewBox="0 0 1024 768"
  style="fill: none; font-family: Helvetica;
 font: Helvetica;
">

<!-- Creator: NGspice -->

<rect x="0" y="0" width="1024" height="768" fill="black" stroke="none"/>
<text stroke="none" fill="white" font-size="16" x="358" y="752">
frequency
</text>
<text stroke="none" fill="white" font-size="16" x="10" y="16">
unknown2: openloopgain
</text>
<path stroke="white" d="M70 720l0 -666"/>
<text stroke="none" fill="white" font-size="16" x="65" y="728">
1
</text>
<path stroke="white" stroke-dasharray="1,2" d="M122 720l0 -666M138 720l0 -666M149 720l0 -666"/>
<path stroke="white" d="M158 720l0 -666"/>
<text stroke="none" fill="white" font-size="16" x="148" y="728">
10
</text>
<path stroke="white" stroke-dasharray="1,2" d="M210 720l0 -666M226 720l0 -666M237 720l0 -666"/>
<path stroke="white" d="M246 720l0 -666"/>
<text stroke="none" fill="white" font-size="16" x="231" y="728">
100
</text>
<path stroke="white" stroke-dasharray="1,2" d="M298 720l0 -666M314 720l0 -666M325 720l0 -666"/>
<path stroke="white" d="M334 720l0 -666"/>
<text stroke="none" fill="white" font-size="16" x="314" y="728">
10^3
</text>
<path stroke="white" stroke-dasharray="1,2" d="M386 720l0 -666M402 720l0 -666M413 720l0 -666"/>
<path stroke="white" d="M422 720l0 -666"/>
<text stroke="none" fill="white" font-size="16" x="402" y="728">
10^4
</text>
<path stroke="white" stroke-dasharray="1,2" d="M474 720l0 -666M490 720l0 -666M501 720l0 -666"/>
<path stroke="white" d="M510 720l0 -666"/>
<text stroke="none" fill="white" font-size="16" x="490" y="728">
10^5
</text>
<path stroke="white" stroke-dasharray="1,2" d="M562 720l0 -666M578 720l0 -666M589 720l0 -666"/>
<path stroke="white" d="M598 720l0 -666"/>
<text stroke="none" fill="white" font-size="16" x="578" y="728">
10^6
</text>
<path stroke="white" stroke-dasharray="1,2" d="M650 720l0 -666M666 720l0 -666M677 720l0 -666"/>
<path stroke="white" d="M686 720l0 -666"/>
<text stroke="none" fill="white" font-size="16" x="666" y="728">
10^7
</text>
<path stroke="white" stroke-dasharray="1,2" d="M738 720l0 -666M754 720l0 -666M765 720l0 -666"/>
<path stroke="white" d="M774 720l0 -666"/>
<text stroke="none" fill="white" font-size="16" x="754" y="728">
10^8
</text>
<path stroke="white" stroke-dasharray="1,2" d="M826 720l0 -666M842 720l0 -666M853 720l0 -666"/>
<path stroke="white" d="M862 720l0 -666"/>
<text stroke="none" fill="white" font-size="16" x="842" y="728">
10^9
</text>
<path stroke="white" stroke-dasharray="1,2" d="M914 720l0 -666M930 720l0 -666M941 720l0 -666"/>
<path stroke="white" d="M950 720l0 -666"/>
<text stroke="none" fill="white" font-size="16" x="925" y="728">
10^10
</text>
<text stroke="none" fill="white" font-size="16" x="614" y="752">
Hz
</text>
<path stroke="white" stroke-dasharray="1,2" d="M70 720l880 0"/>
<text stroke="none" fill="white" font-size="16" x="8" y="728">
-500.0
</text>
<path stroke="white" stroke-dasharray="1,2" d="M70 646l880 0"/>
<text stroke="none" fill="white" font-size="16" x="8" y="654">
-400.0
</text>
<path stroke="white" stroke-dasharray="1,2" d="M70 572l880 0"/>
<text stroke="none" fill="white" font-size="16" x="8" y="580">
-300.0
</text>
<path stroke="white" stroke-dasharray="1,2" d="M70 498l880 0"/>
<text stroke="none" fill="white" font-size="16" x="8" y="506">
-200.0
</text>
<path stroke="white" stroke-dasharray="1,2" d="M70 424l880 0"/>
<text stroke="none" fill="white" font-size="16" x="8" y="432">
-100.0
</text>
<path stroke="white" d="M70 350l880 0"/>
<text stroke="none" fill="white" font-size="16" x="38" y="358">
0.0
</text>
<path stroke="white" stroke-dasharray="1,2" d="M70 276l880 0"/>
<text stroke="none" fill="white" font-size="16" x="18" y="284">
100.0
</text>
<path stroke="white" stroke-dasharray="1,2" d="M70 202l880 0"/>
<text stroke="none" fill="white" font-size="16" x="18" y="210">
200.0
</text>
<path stroke="white" stroke-dasharray="1,2" d="M70 128l880 0"/>
<text stroke="none" fill="white" font-size="16" x="18" y="136">
300.0
</text>
<path stroke="white" stroke-dasharray="1,2" d="M70 54l880 0"/>
<text stroke="none" fill="white" font-size="16" x="18" y="62">
400.0
</text>
<text stroke="none" fill="white" font-size="16" x="10" y="32">
     
</text>
<path stroke="red" d="M440 23l44 0"/>
<text stroke="none" fill="white" font-size="16" x="494" y="32">
mag
</text>
<path stroke="red" d="M70 77l282 0 8 1 9 0 27 3 8 3 9 3 9 6 9 9 9 12 8 18 9 23 9 28 18 64 8 29 9 24 9 18 9 14 9 9 8 6 9 4 18 4 9 1 26 0 18 -2 8 -1 9 -1 9 0 9 -1 9 0 8 -1 194 0"/>
<path stroke="blue" d="M70 23l44 0"/>
<text stroke="none" fill="white" font-size="16" x="124" y="32">
phase
</text>
<path stroke="blue" d="M70 350l229 0 9 1 35 0 9 1 8 0 9 1 9 0 18 2 8 2 9 1 9 3 9 2 9 3 8 4 9 4 27 15 8 5 9 5 27 12 8 3 9 3 9 4 9 3 9 4 8 5 9 5 18 12 9 8 35 35 9 8 8 7 9 7 27 18 8 6 9 6 9 7 18 16 8 8 9 10 18 22 9 13 8 13 27 42 9 12 8 11 9 9 9 8"/>
</svg>
